<mxfile host="app.diagrams.net" agent="Mozilla/5.0 (Macintosh; Intel Mac OS X 10_15_7) AppleWebKit/537.36 (KHTML, like Gecko) Chrome/139.0.0.0 Safari/537.36" version="27.1.6">
  <diagram name="Page-1" id="mutditDrqTFvzeNklLzK">
    <mxGraphModel dx="1426" dy="824" grid="1" gridSize="10" guides="1" tooltips="1" connect="1" arrows="1" fold="1" page="1" pageScale="1" pageWidth="827" pageHeight="1169" background="none" math="0" shadow="0">
      <root>
        <mxCell id="0" />
        <mxCell id="1" parent="0" />
        <mxCell id="yXn4_mn100TUutPYV0t5-26" value="" style="rounded=1;whiteSpace=wrap;html=1;" vertex="1" parent="1">
          <mxGeometry x="20" y="180" width="810" height="480" as="geometry" />
        </mxCell>
        <mxCell id="yXn4_mn100TUutPYV0t5-27" value="" style="group" vertex="1" connectable="0" parent="1">
          <mxGeometry x="60" y="265" width="740" height="325" as="geometry" />
        </mxCell>
        <mxCell id="yXn4_mn100TUutPYV0t5-10" value="" style="edgeStyle=orthogonalEdgeStyle;rounded=0;orthogonalLoop=1;jettySize=auto;html=1;" edge="1" parent="yXn4_mn100TUutPYV0t5-27" target="yXn4_mn100TUutPYV0t5-9">
          <mxGeometry relative="1" as="geometry">
            <mxPoint x="85" y="255" as="sourcePoint" />
          </mxGeometry>
        </mxCell>
        <mxCell id="yXn4_mn100TUutPYV0t5-1" value="Team 1" style="shape=umlActor;verticalLabelPosition=bottom;verticalAlign=top;html=1;outlineConnect=0;" vertex="1" parent="yXn4_mn100TUutPYV0t5-27">
          <mxGeometry x="70" y="260" width="30" height="60" as="geometry" />
        </mxCell>
        <mxCell id="yXn4_mn100TUutPYV0t5-2" value="Team 2" style="shape=umlActor;verticalLabelPosition=bottom;verticalAlign=top;html=1;outlineConnect=0;" vertex="1" parent="yXn4_mn100TUutPYV0t5-27">
          <mxGeometry x="260" y="260" width="30" height="60" as="geometry" />
        </mxCell>
        <mxCell id="yXn4_mn100TUutPYV0t5-6" value="Team 1000" style="shape=umlActor;verticalLabelPosition=bottom;verticalAlign=top;html=1;outlineConnect=0;" vertex="1" parent="yXn4_mn100TUutPYV0t5-27">
          <mxGeometry x="640" y="265" width="30" height="60" as="geometry" />
        </mxCell>
        <mxCell id="yXn4_mn100TUutPYV0t5-9" value="" style="whiteSpace=wrap;html=1;verticalAlign=top;" vertex="1" parent="yXn4_mn100TUutPYV0t5-27">
          <mxGeometry y="35" width="170" height="70" as="geometry" />
        </mxCell>
        <mxCell id="yXn4_mn100TUutPYV0t5-11" value="" style="edgeStyle=orthogonalEdgeStyle;rounded=0;orthogonalLoop=1;jettySize=auto;html=1;" edge="1" parent="yXn4_mn100TUutPYV0t5-27">
          <mxGeometry relative="1" as="geometry">
            <mxPoint x="275" y="255" as="sourcePoint" />
            <mxPoint x="274.5" y="105" as="targetPoint" />
            <Array as="points">
              <mxPoint x="274.5" y="185" />
              <mxPoint x="274.5" y="185" />
            </Array>
          </mxGeometry>
        </mxCell>
        <mxCell id="yXn4_mn100TUutPYV0t5-12" value="&lt;div&gt;&lt;span style=&quot;font-size: 17px;&quot;&gt;&lt;br&gt;&lt;/span&gt;&lt;/div&gt;&lt;span style=&quot;font-size: 17px;&quot;&gt;1024-2047&lt;/span&gt;" style="whiteSpace=wrap;html=1;verticalAlign=top;" vertex="1" parent="yXn4_mn100TUutPYV0t5-27">
          <mxGeometry x="190" y="35" width="170" height="70" as="geometry" />
        </mxCell>
        <mxCell id="yXn4_mn100TUutPYV0t5-13" value="&lt;div&gt;&lt;br&gt;&lt;/div&gt;SOME BIG&amp;nbsp;&lt;div&gt;NUMBER RANGE :)&lt;/div&gt;" style="whiteSpace=wrap;html=1;verticalAlign=top;" vertex="1" parent="yXn4_mn100TUutPYV0t5-27">
          <mxGeometry x="570" y="35" width="170" height="70" as="geometry" />
        </mxCell>
        <mxCell id="yXn4_mn100TUutPYV0t5-14" value="" style="edgeStyle=orthogonalEdgeStyle;rounded=0;orthogonalLoop=1;jettySize=auto;html=1;" edge="1" parent="yXn4_mn100TUutPYV0t5-27">
          <mxGeometry relative="1" as="geometry">
            <mxPoint x="655" y="265" as="sourcePoint" />
            <mxPoint x="654.5" y="105" as="targetPoint" />
            <Array as="points">
              <mxPoint x="654.5" y="185" />
              <mxPoint x="654.5" y="185" />
            </Array>
          </mxGeometry>
        </mxCell>
        <mxCell id="yXn4_mn100TUutPYV0t5-15" value="" style="shape=curlyBracket;whiteSpace=wrap;html=1;rounded=1;labelPosition=left;verticalLabelPosition=middle;align=right;verticalAlign=middle;rotation=90;size=0.5;" vertex="1" parent="yXn4_mn100TUutPYV0t5-27">
          <mxGeometry x="75" y="-70" width="20" height="160" as="geometry" />
        </mxCell>
        <mxCell id="yXn4_mn100TUutPYV0t5-18" value="" style="shape=curlyBracket;whiteSpace=wrap;html=1;rounded=1;labelPosition=left;verticalLabelPosition=middle;align=right;verticalAlign=middle;rotation=90;size=0.5;" vertex="1" parent="yXn4_mn100TUutPYV0t5-27">
          <mxGeometry x="265" y="-70" width="20" height="160" as="geometry" />
        </mxCell>
        <mxCell id="yXn4_mn100TUutPYV0t5-19" value="" style="shape=curlyBracket;whiteSpace=wrap;html=1;rounded=1;labelPosition=left;verticalLabelPosition=middle;align=right;verticalAlign=middle;rotation=90;size=0.5;" vertex="1" parent="yXn4_mn100TUutPYV0t5-27">
          <mxGeometry x="640" y="-70" width="20" height="160" as="geometry" />
        </mxCell>
        <mxCell id="yXn4_mn100TUutPYV0t5-25" value="&lt;span style=&quot;font-size: 17px;&quot;&gt;0 - 1023&lt;/span&gt;" style="text;html=1;align=center;verticalAlign=middle;whiteSpace=wrap;rounded=0;strokeWidth=0;" vertex="1" parent="yXn4_mn100TUutPYV0t5-27">
          <mxGeometry x="20" y="55" width="120" height="30" as="geometry" />
        </mxCell>
      </root>
    </mxGraphModel>
  </diagram>
</mxfile>
